<svg width="24" height="24" viewBox="0 0 24 24" fill="none" xmlns="http://www.w3.org/2000/svg">
<path d="M20 11.5V9.4C20 8.55992 20 8.13988 19.8256 7.81901C19.6722 7.53677 19.4274 7.3073 19.1264 7.16349C18.7841 7 18.3361 7 17.44 7H6.56C5.66392 7 5.21587 7 4.87362 7.16349C4.57256 7.3073 4.32779 7.53677 4.17439 7.81901C4 8.13988 4 8.55992 4 9.4V12.1C4 12.9401 4 13.3601 4.17439 13.681C4.32779 13.9632 4.57256 14.1927 4.87362 14.3365C5.21587 14.5 5.66392 14.5 6.56 14.5H11.2M12 10.75H12.004M16 10.75H16.004M8 10.75H8.004M17.8 16V14.6875C17.8 13.9626 17.1732 13.375 16.4 13.375C15.6268 13.375 15 13.9626 15 14.6875V16M12.2 10.75C12.2 10.8536 12.1105 10.9375 12 10.9375C11.8895 10.9375 11.8 10.8536 11.8 10.75C11.8 10.6464 11.8895 10.5625 12 10.5625C12.1105 10.5625 12.2 10.6464 12.2 10.75ZM16.2 10.75C16.2 10.8536 16.1105 10.9375 16 10.9375C15.8895 10.9375 15.8 10.8536 15.8 10.75C15.8 10.6464 15.8895 10.5625 16 10.5625C16.1105 10.5625 16.2 10.6464 16.2 10.75ZM8.2 10.75C8.2 10.8536 8.11046 10.9375 8 10.9375C7.88954 10.9375 7.8 10.8536 7.8 10.75C7.8 10.6464 7.88954 10.5625 8 10.5625C8.11046 10.5625 8.2 10.6464 8.2 10.75ZM14.88 19H17.92C18.368 19 18.5921 19 18.7632 18.9183C18.9137 18.8463 19.0361 18.7316 19.1128 18.5905C19.2 18.4301 19.2 18.22 19.2 17.8V17.2C19.2 16.78 19.2 16.5699 19.1128 16.4095C19.0361 16.2684 18.9137 16.1537 18.7632 16.0817C18.5921 16 18.368 16 17.92 16H14.88C14.432 16 14.2079 16 14.0368 16.0817C13.8863 16.1537 13.7639 16.2684 13.6872 16.4095C13.6 16.5699 13.6 16.78 13.6 17.2V17.8C13.6 18.22 13.6 18.4301 13.6872 18.5905C13.7639 18.7316 13.8863 18.8463 14.0368 18.9183C14.2079 19 14.432 19 14.88 19Z" stroke="#C5C4BD" stroke-width="1.5" stroke-linecap="round" stroke-linejoin="round"/>
</svg>
