<svg width="24" height="24" viewBox="0 0 24 24" fill="none" xmlns="http://www.w3.org/2000/svg">
<path d="M14.8 14.8C14.8 14.8 13.75 13.4 12 13.4C10.25 13.4 9.2 14.8 9.2 14.8M14.1 9.9H14.107M9.9 9.9H9.907M19 12C19 15.866 15.866 19 12 19C8.13401 19 5 15.866 5 12C5 8.13401 8.13401 5 12 5C15.866 5 19 8.13401 19 12ZM14.45 9.9C14.45 10.0933 14.2933 10.25 14.1 10.25C13.9067 10.25 13.75 10.0933 13.75 9.9C13.75 9.7067 13.9067 9.55 14.1 9.55C14.2933 9.55 14.45 9.7067 14.45 9.9ZM10.25 9.9C10.25 10.0933 10.0933 10.25 9.9 10.25C9.7067 10.25 9.55 10.0933 9.55 9.9C9.55 9.7067 9.7067 9.55 9.9 9.55C10.0933 9.55 10.25 9.7067 10.25 9.9Z" stroke="white" stroke-width="1.5" stroke-linecap="round" stroke-linejoin="round"/>
</svg>
