<svg width="24" height="24" viewBox="0 0 24 24" fill="none" xmlns="http://www.w3.org/2000/svg">
<path d="M4 9.03465C4 8.75808 4 8.6198 4.01169 8.50332C4.12448 7.37995 5.02501 6.49126 6.16337 6.37996C6.2814 6.36842 6.42909 6.36842 6.72447 6.36842C6.83828 6.36842 6.89519 6.36842 6.94351 6.36553C7.56049 6.32866 8.10076 5.94438 8.33132 5.37842C8.34937 5.3341 8.36625 5.28414 8.4 5.18421C8.43375 5.08429 8.45063 5.03432 8.46868 4.99C8.69924 4.42404 9.23951 4.03976 9.85649 4.00289C9.90481 4 9.95818 4 10.0649 4H13.9351C14.0418 4 14.0952 4 14.1435 4.00289C14.7605 4.03976 15.3008 4.42404 15.5313 4.99C15.5494 5.03432 15.5662 5.08429 15.6 5.18421C15.6338 5.28414 15.6506 5.3341 15.6687 5.37842C15.8992 5.94438 16.4395 6.32866 17.0565 6.36553C17.1048 6.36842 17.1617 6.36842 17.2755 6.36842C17.5709 6.36842 17.7186 6.36842 17.8366 6.37996C18.975 6.49126 19.8755 7.37995 19.9883 8.50332C20 8.6198 20 8.75808 20 9.03465V15.2105C20 16.537 20 17.2002 19.7384 17.7068C19.5083 18.1525 19.1412 18.5148 18.6896 18.7419C18.1762 19 17.5041 19 16.16 19H7.84C6.49587 19 5.82381 19 5.31042 18.7419C4.85883 18.5148 4.49168 18.1525 4.26158 17.7068C4 17.2002 4 16.537 4 15.2105V9.03465Z" stroke="#565653" stroke-width="1.5" stroke-linecap="round" stroke-linejoin="round"/>
<path d="M12 15.4474C13.7673 15.4474 15.2 14.0335 15.2 12.2895C15.2 10.5454 13.7673 9.13158 12 9.13158C10.2327 9.13158 8.8 10.5454 8.8 12.2895C8.8 14.0335 10.2327 15.4474 12 15.4474Z" stroke="#565653" stroke-width="1.5" stroke-linecap="round" stroke-linejoin="round"/>
</svg>
