<svg width="160" height="27" viewBox="0 0 160 27" fill="none" xmlns="http://www.w3.org/2000/svg">
<path d="M23.39 8.64605C23.5133 9.85472 23.4147 11.0141 23.094 12.1241C22.7733 13.2341 22.28 14.2454 21.614 15.1581C20.948 16.0707 20.134 16.8477 19.172 17.4891C18.21 18.1304 17.137 18.5744 15.953 18.8211C15.1637 18.9937 14.362 19.1664 13.548 19.3391C12.7587 19.4871 11.957 19.6474 11.143 19.8201V25.3331C11.143 25.5551 11.069 25.7401 10.921 25.8881C10.773 26.0361 10.6003 26.1101 10.403 26.1101H6.74C6.54267 26.1101 6.37 26.0361 6.222 25.8881C6.074 25.7401 6 25.5551 6 25.3331V0.987049C6 0.789717 6.074 0.61705 6.222 0.469049C6.37 0.321049 6.54267 0.24705 6.74 0.24705H14.029C15.2377 0.24705 16.3723 0.46905 17.433 0.91305C18.5183 1.33238 19.4803 1.92438 20.319 2.68905C21.1577 3.42905 21.8483 4.31705 22.391 5.35305C22.9337 6.36438 23.2667 7.46205 23.39 8.64605ZM11.143 14.3071C11.7843 14.1837 12.401 14.0604 12.993 13.9371C13.6097 13.7891 14.2263 13.6534 14.843 13.5301C15.6077 13.3574 16.2367 13.0491 16.73 12.6051C17.2233 12.161 17.5687 11.6431 17.766 11.0511C17.9633 10.459 18.025 9.85472 17.951 9.23805C17.9017 8.59672 17.7167 8.01705 17.396 7.49905C17.0753 6.98105 16.6313 6.54938 16.064 6.20405C15.4967 5.85872 14.8183 5.68605 14.029 5.68605H11.143V14.3071Z" fill="#383835"/>
<path d="M25.3036 26.1101C25.1063 26.1101 24.9336 26.0361 24.7856 25.8881C24.6376 25.7401 24.5636 25.5551 24.5636 25.3331V0.987049C24.5636 0.789717 24.6376 0.61705 24.7856 0.469049C24.9336 0.321049 25.1063 0.24705 25.3036 0.24705H39.7706C39.9679 0.24705 40.1406 0.321049 40.2886 0.469049C40.4366 0.61705 40.5106 0.789717 40.5106 0.987049V4.94605C40.5106 5.14338 40.4366 5.31605 40.2886 5.46405C40.1406 5.61205 39.9679 5.68605 39.7706 5.68605H30.7796V13.5301H36.8106C37.0079 13.5301 37.1806 13.6041 37.3286 13.7521C37.4766 13.9001 37.5506 14.0727 37.5506 14.2701V18.2291C37.5506 18.4264 37.4766 18.5991 37.3286 18.7471C37.1806 18.8951 37.0079 18.9691 36.8106 18.9691H30.7796V20.6711H40.8806C41.0779 20.6711 41.2506 20.7451 41.3986 20.8931C41.5466 21.0411 41.6206 21.2137 41.6206 21.4111V25.3331C41.6206 25.5551 41.5466 25.7401 41.3986 25.8881C41.2506 26.0361 41.0779 26.1101 40.8806 26.1101H25.3036Z" fill="#383835"/>
<path d="M41.8625 0.987049C41.8625 0.789717 41.9365 0.61705 42.0845 0.469049C42.2325 0.321049 42.4052 0.24705 42.6025 0.24705H60.3625C60.5599 0.24705 60.7325 0.321049 60.8805 0.469049C61.0285 0.61705 61.1025 0.789717 61.1025 0.987049V4.94605C61.1025 5.14338 61.0285 5.31605 60.8805 5.46405C60.7325 5.61205 60.5599 5.68605 60.3625 5.68605H54.5905V25.3331C54.5905 25.5304 54.5165 25.7154 54.3685 25.8881C54.2205 26.0361 54.0479 26.1101 53.8505 26.1101H49.1515C48.9295 26.1101 48.7445 26.0361 48.5965 25.8881C48.4485 25.7154 48.3745 25.5304 48.3745 25.3331V5.68605H42.6025C42.4052 5.68605 42.2325 5.61205 42.0845 5.46405C41.9365 5.31605 41.8625 5.14338 41.8625 4.94605V0.987049Z" fill="#383835"/>
<path d="M62.9366 26.1101C62.7393 26.1101 62.5666 26.0361 62.4186 25.8881C62.2706 25.7401 62.1966 25.5551 62.1966 25.3331V0.987049C62.1966 0.789717 62.2706 0.61705 62.4186 0.469049C62.5666 0.321049 62.7393 0.24705 62.9366 0.24705H71.2986C72.4333 0.24705 73.4693 0.456717 74.4066 0.87605C75.3686 1.27072 76.195 1.81338 76.8856 2.50405C77.601 3.17005 78.1683 3.94705 78.5876 4.83505C79.007 5.72305 79.2536 6.66038 79.3276 7.64705C79.4263 8.60905 79.34 9.58338 79.0686 10.5701C78.7973 11.5567 78.304 12.4941 77.5886 13.3821C78.4026 14.1467 78.9946 14.9977 79.3646 15.9351C79.7593 16.8477 79.9566 17.7727 79.9566 18.7101C79.9566 19.6474 79.7716 20.5601 79.4016 21.4481C79.0563 22.3361 78.563 23.1254 77.9216 23.8161C77.2803 24.5067 76.5033 25.0617 75.5906 25.4811C74.7026 25.9004 73.7036 26.1101 72.5936 26.1101H62.9366ZM67.3396 12.3091C68.129 12.1364 68.9306 11.9761 69.7446 11.8281C70.5586 11.6554 71.3603 11.4827 72.1496 11.3101C73.0376 11.1374 73.6666 10.7304 74.0366 10.0891C74.4313 9.42305 74.5916 8.74472 74.5176 8.05405C74.4436 7.36338 74.1476 6.74672 73.6296 6.20405C73.1363 5.63672 72.4333 5.35305 71.5206 5.35305H67.3396V12.3091ZM67.3396 20.7451H72.8526C73.5186 20.7451 74.0736 20.4984 74.5176 20.0051C74.9616 19.4871 75.159 18.9074 75.1096 18.2661C75.0356 17.6001 74.7273 17.0697 74.1846 16.6751C73.642 16.2804 73.05 16.1571 72.4086 16.305C71.5453 16.4777 70.6943 16.6504 69.8556 16.8231C69.0416 16.9957 68.203 17.1684 67.3396 17.3411V20.7451Z" fill="#383835"/>
<path d="M86.5805 24.7411C85.0512 23.7791 83.7808 22.5951 82.7695 21.1891C81.7828 19.7584 81.0922 18.2291 80.6975 16.6011C80.3028 14.9484 80.2165 13.2587 80.4385 11.5321C80.6605 9.80538 81.2155 8.16505 82.1035 6.61105C82.9915 5.03238 84.1262 3.72505 85.5075 2.68905C86.9135 1.62838 88.4182 0.87605 90.0215 0.432049C91.6248 -0.0119507 93.2898 -0.110618 95.0165 0.136049C96.7432 0.358049 98.3835 0.950049 99.9375 1.91205C101.467 2.87405 102.725 4.07038 103.712 5.50105C104.698 6.90705 105.389 8.43638 105.784 10.0891C106.178 11.7171 106.265 13.3944 106.043 15.1211C105.845 16.8477 105.303 18.4881 104.415 20.0421C103.527 21.6207 102.38 22.9404 100.974 24.0011C99.5922 25.0371 98.0998 25.7771 96.4965 26.2211C94.8932 26.6651 93.2282 26.7637 91.5015 26.5171C89.7748 26.2951 88.1345 25.7031 86.5805 24.7411ZM86.7285 9.71905C86.2598 10.6317 85.9762 11.5814 85.8775 12.5681C85.7788 13.5547 85.8528 14.5167 86.0995 15.4541C86.3708 16.3667 86.8025 17.2301 87.3945 18.0441C88.0112 18.8334 88.7635 19.4871 89.6515 20.0051C90.5642 20.5231 91.5138 20.8314 92.5005 20.9301C93.4872 21.0287 94.4368 20.9424 95.3495 20.6711C96.2868 20.3751 97.1378 19.9187 97.9025 19.3021C98.6672 18.6607 99.2962 17.8714 99.7895 16.9341C100.258 16.0214 100.53 15.0717 100.604 14.085C100.702 13.0984 100.616 12.1364 100.345 11.1991C100.098 10.2617 99.6785 9.39838 99.0865 8.60905C98.4945 7.81972 97.7422 7.16605 96.8295 6.64805C95.9168 6.13005 94.9672 5.82172 93.9805 5.72305C92.9938 5.62438 92.0442 5.72305 91.1315 6.01905C90.2188 6.29038 89.3678 6.74672 88.5785 7.38805C87.8138 8.02938 87.1972 8.80638 86.7285 9.71905Z" fill="#383835"/>
<path d="M113.599 24.7411C112.07 23.7791 110.8 22.5951 109.788 21.1891C108.802 19.7584 108.111 18.2291 107.716 16.6011C107.322 14.9484 107.235 13.2587 107.457 11.5321C107.679 9.80538 108.234 8.16505 109.122 6.61105C110.01 5.03238 111.145 3.72505 112.526 2.68905C113.932 1.62838 115.437 0.87605 117.04 0.432049C118.644 -0.0119507 120.309 -0.110618 122.035 0.136049C123.762 0.358049 125.402 0.950049 126.956 1.91205C128.486 2.87405 129.744 4.07038 130.73 5.50105C131.717 6.90705 132.408 8.43638 132.802 10.0891C133.197 11.7171 133.283 13.3944 133.061 15.1211C132.864 16.8477 132.321 18.4881 131.433 20.0421C130.545 21.6207 129.398 22.9404 127.992 24.0011C126.611 25.0371 125.119 25.7771 123.515 26.2211C121.912 26.6651 120.247 26.7637 118.52 26.5171C116.794 26.2951 115.153 25.7031 113.599 24.7411ZM113.747 9.71905C113.279 10.6317 112.995 11.5814 112.896 12.5681C112.798 13.5547 112.872 14.5167 113.118 15.4541C113.39 16.3667 113.821 17.2301 114.413 18.0441C115.03 18.8334 115.782 19.4871 116.67 20.0051C117.583 20.5231 118.533 20.8314 119.519 20.9301C120.506 21.0287 121.456 20.9424 122.368 20.6711C123.306 20.3751 124.157 19.9187 124.921 19.3021C125.686 18.6607 126.315 17.8714 126.808 16.9341C127.277 16.0214 127.548 15.0717 127.622 14.085C127.721 13.0984 127.635 12.1364 127.363 11.1991C127.117 10.2617 126.697 9.39838 126.105 8.60905C125.513 7.81972 124.761 7.16605 123.848 6.64805C122.936 6.13005 121.986 5.82172 120.999 5.72305C120.013 5.62438 119.063 5.72305 118.15 6.01905C117.238 6.29038 116.387 6.74672 115.597 7.38805C114.833 8.02938 114.216 8.80638 113.747 9.71905Z" fill="#383835"/>
<path d="M134.328 0.987049C134.328 0.789717 134.402 0.61705 134.55 0.469049C134.698 0.321049 134.871 0.24705 135.068 0.24705H139.767C139.989 0.24705 140.174 0.321049 140.322 0.469049C140.47 0.61705 140.544 0.789717 140.544 0.987049V15.0101C141.111 14.8867 141.679 14.7757 142.246 14.6771C142.813 14.5537 143.381 14.4304 143.948 14.3071C144.515 12.0377 145.083 9.79305 145.65 7.57305C146.242 5.32838 146.822 3.07138 147.389 0.802049C147.463 0.432049 147.697 0.24705 148.092 0.24705H152.606C152.853 0.24705 153.05 0.345716 153.198 0.54305C153.346 0.715716 153.383 0.925383 153.309 1.17205C152.742 3.36738 152.187 5.56272 151.644 7.75805C151.101 9.92872 150.546 12.1117 149.979 14.3071C150.546 16.1077 151.101 17.9084 151.644 19.7091C152.187 21.5097 152.742 23.3227 153.309 25.1481C153.383 25.3947 153.346 25.6167 153.198 25.8141C153.05 26.0114 152.84 26.1101 152.569 26.1101H148.092C147.722 26.1101 147.488 25.9251 147.389 25.5551C147.068 24.5437 146.748 23.5447 146.427 22.5581C146.131 21.5467 145.835 20.5231 145.539 19.4871C144.7 19.6597 143.862 19.8324 143.023 20.0051C142.209 20.1777 141.383 20.3504 140.544 20.5231V25.3331C140.544 25.5304 140.47 25.7154 140.322 25.8881C140.174 26.0361 139.989 26.1101 139.767 26.1101H135.068C134.871 26.1101 134.698 26.0361 134.55 25.8881C134.402 25.7154 134.328 25.5304 134.328 25.3331V0.987049Z" fill="#383835"/>
</svg>
