<svg width="77" height="16" viewBox="0 0 77 16" fill="none" xmlns="http://www.w3.org/2000/svg">
<path d="M0.191406 15H3.12109V10.3906H5.66016C8.92188 10.3906 10.7969 8.44727 10.7969 5.625C10.7969 2.8418 8.95117 0.859375 5.73828 0.859375H0.191406V15ZM3.12109 8.02734V3.26172H5.19141C6.92969 3.27148 7.7793 4.21875 7.76953 5.625C7.7793 7.05078 6.92969 8.02734 5.19141 8.02734H3.12109ZM17.0227 15.2148C19.6398 15.2051 21.3977 13.9355 21.8078 11.9727H19.0539C18.7707 12.6074 18.0676 13.0371 17.0813 13.0469C15.5871 13.0371 14.6398 12.0508 14.6398 10.4492H21.8859V9.62891C21.8859 6.01562 19.6887 4.25781 16.9055 4.25781C13.8 4.25781 11.7785 6.47461 11.7883 9.74609C11.7785 13.1055 13.7707 15.2051 17.0227 15.2148ZM14.6398 8.63281C14.6984 7.41211 15.6359 6.41602 16.9641 6.42578C18.2531 6.41602 19.1418 7.34375 19.1516 8.63281H14.6398ZM29.0883 4.39453H27.0961V1.85547H24.2055V4.39453H22.7406V6.5625H24.2055V12.1484C24.1859 14.209 25.6117 15.1465 27.7016 15.1367C28.4145 15.1465 28.932 15.0879 29.2445 15.0391V12.7539C28.893 12.7832 28.3852 12.8125 28.0922 12.8125C27.5063 12.793 27.0863 12.5879 27.0961 11.7383V6.5625H29.0883V4.39453ZM30.9977 15H33.8492V13.3008H33.9664C34.3863 14.1797 35.2652 15.1758 36.9937 15.1758C39.4156 15.1758 41.3004 13.252 41.3102 9.70703C41.3004 6.07422 39.3375 4.25781 36.9937 4.25781C35.2066 4.25781 34.3668 5.3125 33.9664 6.17188H33.8883V0.859375H30.9977V15ZM33.8297 9.6875C33.8199 7.7832 34.6402 6.5625 36.0758 6.5625C37.5699 6.5625 38.3512 7.8418 38.3414 9.6875C38.3512 11.5625 37.5504 12.8613 36.0758 12.8711C34.65 12.8613 33.8199 11.6016 33.8297 9.6875ZM47.7313 15.2148C50.9441 15.2051 52.9363 13.0078 52.9461 9.72656C52.9363 6.45508 50.9441 4.25781 47.7313 4.25781C44.5281 4.25781 42.5262 6.45508 42.5359 9.72656C42.5262 13.0078 44.5281 15.2051 47.7313 15.2148ZM45.4656 9.72656C45.4656 7.86133 46.2371 6.46484 47.7508 6.46484C49.2254 6.46484 50.0066 7.86133 49.9969 9.72656C50.0066 11.582 49.2254 12.959 47.7508 12.9688C46.2371 12.959 45.4656 11.582 45.4656 9.72656ZM59.3281 15.2148C62.541 15.2051 64.5332 13.0078 64.543 9.72656C64.5332 6.45508 62.541 4.25781 59.3281 4.25781C56.125 4.25781 54.123 6.45508 54.1328 9.72656C54.123 13.0078 56.125 15.2051 59.3281 15.2148ZM57.0625 9.72656C57.0625 7.86133 57.834 6.46484 59.3477 6.46484C60.8223 6.46484 61.6035 7.86133 61.5938 9.72656C61.6035 11.582 60.8223 12.959 59.3477 12.9688C57.834 12.959 57.0625 11.582 57.0625 9.72656ZM66.1594 15H69.05V11.6016L69.8605 10.6836L72.7805 15H76.1789L72.009 8.98438L75.9641 4.39453H72.6438L69.2063 8.45703H69.05V0.859375H66.1594V15Z" fill="black"/>
</svg>
