<svg width="24" height="24" viewBox="0 0 24 24" fill="none" xmlns="http://www.w3.org/2000/svg">
<path d="M12 20C16.4183 20 20 16.4183 20 12C20 7.58172 16.4183 4 12 4C7.58172 4 4 7.58172 4 12C4 16.4183 7.58172 20 12 20Z" stroke="#C5C4BD" stroke-width="1.5" stroke-linecap="round" stroke-linejoin="round"/>
<path d="M13.4667 8.24C13.4667 8.01598 13.4667 7.90397 13.4231 7.8184C13.3847 7.74314 13.3235 7.68195 13.2483 7.6436C13.1627 7.6 13.0507 7.6 12.8267 7.6H11.1733C10.9493 7.6 10.8373 7.6 10.7517 7.6436C10.6765 7.68195 10.6153 7.74314 10.5769 7.8184C10.5333 7.90397 10.5333 8.01598 10.5333 8.24V9.89333C10.5333 10.1174 10.5333 10.2294 10.4897 10.3149C10.4514 10.3902 10.3902 10.4514 10.3149 10.4897C10.2294 10.5333 10.1174 10.5333 9.89333 10.5333H8.24C8.01598 10.5333 7.90397 10.5333 7.8184 10.5769C7.74314 10.6153 7.68195 10.6765 7.6436 10.7517C7.6 10.8373 7.6 10.9493 7.6 11.1733V12.8267C7.6 13.0507 7.6 13.1627 7.6436 13.2483C7.68195 13.3235 7.74314 13.3847 7.8184 13.4231C7.90397 13.4667 8.01598 13.4667 8.24 13.4667H9.89333C10.1174 13.4667 10.2294 13.4667 10.3149 13.5103C10.3902 13.5486 10.4514 13.6098 10.4897 13.6851C10.5333 13.7706 10.5333 13.8826 10.5333 14.1067V15.76C10.5333 15.984 10.5333 16.096 10.5769 16.1816C10.6153 16.2569 10.6765 16.3181 10.7517 16.3564C10.8373 16.4 10.9493 16.4 11.1733 16.4H12.8267C13.0507 16.4 13.1627 16.4 13.2483 16.3564C13.3235 16.3181 13.3847 16.2569 13.4231 16.1816C13.4667 16.096 13.4667 15.984 13.4667 15.76V14.1067C13.4667 13.8826 13.4667 13.7706 13.5103 13.6851C13.5486 13.6098 13.6098 13.5486 13.6851 13.5103C13.7706 13.4667 13.8826 13.4667 14.1067 13.4667H15.76C15.984 13.4667 16.096 13.4667 16.1816 13.4231C16.2569 13.3847 16.3181 13.3235 16.3564 13.2483C16.4 13.1627 16.4 13.0507 16.4 12.8267V11.1733C16.4 10.9493 16.4 10.8373 16.3564 10.7517C16.3181 10.6765 16.2569 10.6153 16.1816 10.5769C16.096 10.5333 15.984 10.5333 15.76 10.5333H14.1067C13.8826 10.5333 13.7706 10.5333 13.6851 10.4897C13.6098 10.4514 13.5486 10.3902 13.5103 10.3149C13.4667 10.2294 13.4667 10.1174 13.4667 9.89333V8.24Z" stroke="#C5C4BD" stroke-width="1.5" stroke-linecap="round" stroke-linejoin="round"/>
</svg>
