<svg width="24" height="24" viewBox="0 0 24 24" fill="none" xmlns="http://www.w3.org/2000/svg">
<path d="M18.4 18.6378H12.6054M5 19L9.01945 17.4541C9.27654 17.3552 9.40509 17.3057 9.52535 17.2412C9.63218 17.1838 9.73402 17.1177 9.8298 17.0433C9.93764 16.9596 10.035 16.8623 10.2298 16.6675L18.4 8.49734C19.2 7.69727 19.2 6.40011 18.4 5.60005C17.5999 4.79998 16.3027 4.79998 15.5027 5.60005L7.33252 13.7702C7.13774 13.965 7.04036 14.0624 6.95667 14.1702C6.88235 14.266 6.81616 14.3678 6.75882 14.4746C6.69426 14.5949 6.64482 14.7235 6.54594 14.9805L5 19ZM5 19L6.49074 15.1241C6.59741 14.8468 6.65075 14.7081 6.74224 14.6446C6.82219 14.5891 6.92112 14.5681 7.01672 14.5863C7.12612 14.6072 7.23119 14.7123 7.44131 14.9224L9.07762 16.5587C9.28774 16.7688 9.3928 16.8739 9.4137 16.9833C9.43195 17.0789 9.41096 17.1778 9.35545 17.2578C9.29192 17.3493 9.15325 17.4026 8.87589 17.5093L5 19Z" stroke="#565653" stroke-width="1.5" stroke-linecap="round" stroke-linejoin="round"/>
</svg>
