<svg width="24" height="24" viewBox="0 0 24 24" fill="none" xmlns="http://www.w3.org/2000/svg">
<path d="M12 20C16.4183 20 20 16.4183 20 12C20 7.58172 16.4183 4 12 4C7.58172 4 4 7.58172 4 12C4 16.4183 7.58172 20 12 20Z" stroke="#565653" stroke-width="1.5" stroke-linecap="round" stroke-linejoin="round"/>
<path d="M13.3853 12.9558C13.3288 12.7864 13.3006 12.7018 13.3021 12.6325C13.3036 12.5597 13.3133 12.5215 13.3469 12.4569C13.3788 12.3954 13.464 12.316 13.6346 12.1574C14.1055 11.7192 14.4 11.094 14.4 10.4C14.4 9.07452 13.3255 8 12 8C10.6745 8 9.6 9.07452 9.6 10.4C9.6 11.094 9.89455 11.7192 10.3654 12.1574C10.536 12.316 10.6212 12.3954 10.6531 12.4569C10.6867 12.5215 10.6964 12.5597 10.6979 12.6325C10.6994 12.7018 10.6712 12.7864 10.6148 12.9558L9.8808 15.1576C9.78599 15.442 9.73859 15.5842 9.76701 15.6974C9.79189 15.7965 9.85374 15.8823 9.93987 15.9372C10.0383 16 10.1882 16 10.488 16H13.512C13.8118 16 13.9617 16 14.0601 15.9372C14.1463 15.8823 14.2081 15.7965 14.233 15.6974C14.2614 15.5842 14.214 15.442 14.1192 15.1576L13.3853 12.9558Z" stroke="#565653" stroke-width="1.5" stroke-linecap="round" stroke-linejoin="round"/>
</svg>
