<svg width="21" height="21" viewBox="0 0 21 21" fill="none"
    xmlns="http://www.w3.org/2000/svg">
    <path d="M10.6292 2.07031C5.46958 2.07031 1.30859 5.27141 1.30859 9.15759C1.30859 11.6801 3.03957 13.8889 5.63602 15.1501L4.75722 18.3065C4.74065 18.3538 4.7381 18.4045 4.74986 18.4532C4.76162 18.5018 4.78722 18.5463 4.8238 18.5817C4.87713 18.6269 4.94576 18.652 5.01687 18.6521C5.07583 18.6476 5.13177 18.6252 5.17665 18.5881L8.95816 16.1361C9.51635 16.2102 10.079 16.2486 10.6425 16.2513C15.7955 16.2513 19.9631 13.0502 19.9631 9.15759C19.9631 5.26501 15.7822 2.07031 10.6292 2.07031Z" fill="white"/>
</svg>