<svg width="24" height="24" viewBox="0 0 24 24" fill="none" xmlns="http://www.w3.org/2000/svg">
<path d="M8.8 13.6C8.8 13.6 10 15.2 12 15.2C14 15.2 15.2 13.6 15.2 13.6M14.4 9.6H14.408M8.8 9.6H10.4M20 12C20 16.4183 16.4183 20 12 20C7.58172 20 4 16.4183 4 12C4 7.58172 7.58172 4 12 4C16.4183 4 20 7.58172 20 12ZM14.8 9.6C14.8 9.82091 14.6209 10 14.4 10C14.1791 10 14 9.82091 14 9.6C14 9.37909 14.1791 9.2 14.4 9.2C14.6209 9.2 14.8 9.37909 14.8 9.6Z" stroke="#565653" stroke-width="1.5" stroke-linecap="round" stroke-linejoin="round"/>
</svg>
