<svg width="18" height="18" viewBox="0 0 18 18" fill="none" xmlns="http://www.w3.org/2000/svg">
<path d="M9 17C13.4183 17 17 13.4183 17 9C17 4.58172 13.4183 1 9 1C4.58172 1 1 4.58172 1 9C1 13.4183 4.58172 17 9 17Z" stroke="#C5C4BD" stroke-width="1.5" stroke-linecap="round" stroke-linejoin="round"/>
<path d="M10.3853 9.95575C10.3288 9.78644 10.3006 9.70179 10.3021 9.63253C10.3036 9.5597 10.3133 9.52152 10.3469 9.45685C10.3788 9.39536 10.464 9.31603 10.6346 9.15735C11.1055 8.71916 11.4 8.09398 11.4 7.4C11.4 6.07452 10.3255 5 9 5C7.67452 5 6.6 6.07452 6.6 7.4C6.6 8.09398 6.89455 8.71916 7.36545 9.15735C7.53597 9.31603 7.62123 9.39536 7.65312 9.45685C7.68665 9.52152 7.69639 9.5597 7.69794 9.63253C7.69941 9.70179 7.67119 9.78644 7.61475 9.95575L6.8808 12.1576C6.78599 12.442 6.73859 12.5842 6.76701 12.6974C6.79189 12.7965 6.85374 12.8823 6.93987 12.9372C7.03827 13 7.18816 13 7.48795 13H10.512C10.8118 13 10.9617 13 11.0601 12.9372C11.1463 12.8823 11.2081 12.7965 11.233 12.6974C11.2614 12.5842 11.214 12.442 11.1192 12.1576L10.3853 9.95575Z" stroke="#C5C4BD" stroke-width="1.5" stroke-linecap="round" stroke-linejoin="round"/>
</svg>
