<svg width="24" height="24" viewBox="0 0 24 24" fill="none" xmlns="http://www.w3.org/2000/svg">
<path d="M8 12H8.00889M12 12H12.0089M16 12H16.0089M12 20C16.4183 20 20 16.4183 20 12C20 7.58172 16.4183 4 12 4C7.58172 4 4 7.58172 4 12C4 13.0641 4.20777 14.0797 4.58494 15.0085C4.65713 15.1862 4.69323 15.2751 4.70933 15.3469C4.72508 15.4172 4.73084 15.4692 4.73085 15.5412C4.73086 15.6148 4.71749 15.695 4.69076 15.8554L4.16367 19.018C4.10847 19.3492 4.08087 19.5148 4.13223 19.6345C4.17718 19.7393 4.2607 19.8228 4.3655 19.8678C4.48524 19.9191 4.65083 19.8915 4.98201 19.8363L8.14458 19.3092C8.30497 19.2825 8.38516 19.2691 8.45878 19.2691C8.5308 19.2692 8.58281 19.2749 8.65308 19.2907C8.72493 19.3068 8.8138 19.3429 8.99155 19.4151C9.92027 19.7922 10.9359 20 12 20ZM8.44444 12C8.44444 12.2455 8.24546 12.4444 8 12.4444C7.75454 12.4444 7.55556 12.2455 7.55556 12C7.55556 11.7545 7.75454 11.5556 8 11.5556C8.24546 11.5556 8.44444 11.7545 8.44444 12ZM12.4444 12C12.4444 12.2455 12.2455 12.4444 12 12.4444C11.7545 12.4444 11.5556 12.2455 11.5556 12C11.5556 11.7545 11.7545 11.5556 12 11.5556C12.2455 11.5556 12.4444 11.7545 12.4444 12ZM16.4444 12C16.4444 12.2455 16.2455 12.4444 16 12.4444C15.7545 12.4444 15.5556 12.2455 15.5556 12C15.5556 11.7545 15.7545 11.5556 16 11.5556C16.2455 11.5556 16.4444 11.7545 16.4444 12Z" stroke="#C5C4BD" stroke-width="1.5" stroke-linecap="round" stroke-linejoin="round"/>
</svg>
