<svg width="20" height="20" viewBox="0 0 20 20" fill="none" xmlns="http://www.w3.org/2000/svg">
<path d="M9.05116 2.89768H5.29395C3.79093 2.89768 3.03942 2.89768 2.46534 3.19019C1.96036 3.44748 1.54981 3.85804 1.29251 4.36301C1 4.93709 1 5.68861 1 7.19163V14.706C1 16.2091 1 16.9606 1.29251 17.5347C1.54981 18.0396 1.96036 18.4502 2.46534 18.7075C3.03942 19 3.79093 19 5.29395 19H12.8084C14.3114 19 15.0629 19 15.637 18.7075C16.142 18.4502 16.5525 18.0396 16.8098 17.5347C17.1023 16.9606 17.1023 16.2091 17.1023 14.706V10.9488M6.36742 13.6326H7.86542C8.30303 13.6326 8.52183 13.6326 8.72774 13.5831C8.9103 13.5393 9.08482 13.467 9.2449 13.3689C9.42545 13.2583 9.58017 13.1035 9.88961 12.7941L18.4442 4.23954C19.1853 3.49845 19.1853 2.29691 18.4442 1.55582C17.7031 0.814728 16.5016 0.814727 15.7605 1.55582L7.20587 10.1104C6.89643 10.4198 6.74171 10.5745 6.63107 10.7551C6.53297 10.9152 6.46068 11.0897 6.41685 11.2723C6.36742 11.4782 6.36742 11.697 6.36742 12.1346V13.6326Z" stroke="#EEEDE7" stroke-width="1.5" stroke-linecap="round" stroke-linejoin="round"/>
</svg>
