<svg width="24" height="24" viewBox="0 0 24 24" fill="none" xmlns="http://www.w3.org/2000/svg">
<path d="M6.65304 17.9507C7.1397 16.8042 8.27594 16 9.6 16H14.4C15.7241 16 16.8603 16.8042 17.347 17.9507M15.2 10C15.2 11.7673 13.7673 13.2 12 13.2C10.2327 13.2 8.8 11.7673 8.8 10C8.8 8.23269 10.2327 6.8 12 6.8C13.7673 6.8 15.2 8.23269 15.2 10ZM20 12C20 16.4183 16.4183 20 12 20C7.58172 20 4 16.4183 4 12C4 7.58172 7.58172 4 12 4C16.4183 4 20 7.58172 20 12Z" stroke="#565653" stroke-width="1.5" stroke-linecap="round" stroke-linejoin="round"/>
</svg>
